<svg version="1.1" xmlns="http://www.w3.org/2000/svg" xmlns:xlink="http://www.w3.org/1999/xlink" width="576.4896" height="458.54115" viewBox="0,0,576.4896,458.54115"><g transform="translate(37.4896,-22.2922)"><g data-paper-data="{&quot;isPaintingLayer&quot;:true}" fill-rule="nonzero" stroke-linejoin="miter" stroke-miterlimit="10" stroke-dasharray="" stroke-dashoffset="0" style="mix-blend-mode: normal"><path d="M539,251.56277c0,126.62264 -129.05159,229.27057 -288.24479,229.27057c-159.1932,0 -288.2448,-102.64793 -288.2448,-229.27057c0,-126.62264 129.0516,-229.27057 288.2448,-229.27057c159.19321,0 288.2448,102.64793 288.2448,229.27058z" fill="#faff80" stroke="none" stroke-width="none" stroke-linecap="butt"/><g><g stroke-linecap="round"><g stroke="#000000" stroke-width="0"><path d="M204.3804,227.2287l20.66661,-137.2273l2.33785,144.55199z" fill="#cfdc15"/><path d="M226.57278,234.58023l-2.27854,-142.75729l21.70863,140.31861z" fill="#e7f619"/><path d="M245.19079,232.16834l-19.03522,-133.22039l36.39638,117.37527z" fill="#f0ff19"/></g><path d="M234.50072,246.44845l0.04935,-12.37238" fill="none" stroke="#940000" stroke-width="1.5"/><g stroke="#000000" stroke-width="0"><path d="M207.75263,183.69305l15.82181,-105.05752l1.78979,110.66509z" fill="#cfdc15"/><path d="M224.7425,189.32116l-1.74439,-109.29112l16.61952,107.4241z" fill="#e7f619"/><path d="M238.99596,187.47469l-14.57284,-101.98993l27.86409,89.85933z" fill="#f0ff19"/></g><g stroke="#000000" stroke-width="0"><path d="M211.82505,145.0707l11.42579,-75.86766l1.2925,79.91719z" fill="#cfdc15"/><path d="M224.09436,149.13506l-1.2597,-78.92497l12.00186,77.5767z" fill="#e7f619"/><path d="M234.38755,147.80163l-10.52384,-73.65238l20.12215,64.89223z" fill="#f0ff19"/></g></g><path d="M226.39566,141.19372c0.08185,2.47723 -2.79713,4.58275 -6.4304,4.70281c-3.63327,0.12006 -6.64499,-1.79081 -6.72684,-4.26803c-0.08185,-2.47723 2.79712,-4.58275 6.4304,-4.70281c3.63327,-0.12006 6.64499,1.79081 6.72684,4.26803z" fill="#ffffff" stroke="#000000" stroke-width="2.5" stroke-linecap="butt"/><path d="M240.16331,141.11296c0.0614,1.85792 -1.89703,3.43044 -4.37426,3.51229c-2.47723,0.08185 -4.53519,-1.35792 -4.59659,-3.21585c-0.0614,-1.85792 1.89703,-3.43044 4.37426,-3.51229c2.47723,-0.08185 4.53519,1.35792 4.59659,3.21585z" fill="#ffffff" stroke="#000000" stroke-width="2.5" stroke-linecap="butt"/><path d="M237.96942,154.5204l-19.03462,1.05748l12.68974,11.63227z" fill="none" stroke="#000000" stroke-width="2.5" stroke-linecap="round"/></g><g><g stroke-linecap="round"><g stroke="#000000" stroke-width="0"><path d="M242.4995,230.40255l40.70851,-89.55415l-26.44464,99.01035z" fill="#cfdc15"/><path d="M256.2045,239.71953l26.13696,-97.7752l-12.41631,99.88132z" fill="#e7f619"/><path d="M269.36626,241.68639l12.86223,-94.52313l2.04823,87.08731z" fill="#f0ff19"/></g><path d="M259.30778,249.34916l2.43351,-8.42603" fill="none" stroke="#940000" stroke-width="1.5"/><g stroke="#000000" stroke-width="0"><path d="M253.24328,201.37365l31.16536,-68.56025l-20.24529,75.79964z" fill="#cfdc15"/><path d="M263.73546,208.50646l20.00974,-74.85405l-9.5056,76.46641z" fill="#e7f619"/><path d="M273.81175,210.01225l9.84698,-72.36436l1.56807,66.67168z" fill="#f0ff19"/></g><g stroke="#000000" stroke-width="0"><path d="M263.51143,175.83051l22.50618,-49.51102l-14.62022,54.73898z" fill="#cfdc15"/><path d="M271.08841,180.98149l14.45011,-54.05611l-6.8645,55.2205z" fill="#e7f619"/><path d="M278.36504,182.0689l7.11102,-52.25818l1.13238,48.1472z" fill="#f0ff19"/></g></g><path d="M274.19783,176.01339c-0.42469,1.70487 -2.79602,2.58201 -5.29651,1.95912c-2.50049,-0.62288 -4.18325,-2.50991 -3.75856,-4.21479c0.42469,-1.70487 2.79601,-2.58201 5.2965,-1.95912c2.50049,0.62288 4.18326,2.50991 3.75856,4.21479z" fill="#ffffff" stroke="#000000" stroke-width="2.5" stroke-linecap="butt"/><path d="M283.6004,178.62882c-0.31852,1.27866 -1.9588,1.97094 -3.66368,1.54624c-1.70488,-0.4247 -2.82874,-1.80553 -2.51022,-3.08419c0.31852,-1.27866 1.95881,-1.97093 3.66368,-1.54624c1.70488,0.4247 2.82874,1.80553 2.51022,3.08419z" fill="#ffffff" stroke="#000000" stroke-width="2.5" stroke-linecap="butt"/><path d="M273.10827,184.37347l6.39569,10.3924l-13.18309,-2.97113z" data-paper-data="{&quot;index&quot;:null}" fill="none" stroke="#000000" stroke-width="2.5" stroke-linecap="round"/></g><g stroke="none" stroke-linecap="butt"><g fill="#51a27b" stroke-width="0"><path d="M103.26444,276.10822v-78.27758h12.57186v78.27758z"/><path d="M95.43668,236.59668v-9.31876h10.06426v9.31876z"/><path d="M94.31843,236.59668v-25.34703h5.96401v25.34703z"/><path d="M113.3287,242.18794v-5.21851h10.43701v5.21851z"/><path d="M120.84583,241.81519v-23.11053h3.2305v23.11053z"/></g><path d="M107.09852,206.47493c0,-0.48018 0.38926,-0.86945 0.86944,-0.86945c0.48018,0 0.86944,0.38927 0.86944,0.86945c0,0.48018 -0.38926,0.86944 -0.86944,0.86944c-0.48018,0 -0.86944,-0.38926 -0.86944,-0.86944z" fill="#ffffff" stroke-width="0.5"/><path d="M110.71539,207.86603c0,-0.48018 0.38926,-0.86944 0.86944,-0.86944c0.48018,0 0.86944,0.38926 0.86944,0.86944c0,0.48018 -0.38926,0.86944 -0.86944,0.86944c-0.48018,0 -0.86944,-0.38926 -0.86944,-0.86944z" fill="#ffffff" stroke-width="0.5"/><path d="M108.21141,212.59579c0,-0.48018 0.38926,-0.86944 0.86944,-0.86944c0.48018,0 0.86944,0.38926 0.86944,0.86944c0,0.48018 -0.38926,0.86944 -0.86944,0.86944c-0.48018,0 -0.86944,-0.38926 -0.86944,-0.86944z" fill="#ffffff" stroke-width="0.5"/><path d="M113.21938,213.70867c0,-0.48018 0.38926,-0.86944 0.86944,-0.86944c0.48018,0 0.86944,0.38926 0.86944,0.86944c0,0.48018 -0.38926,0.86944 -0.86944,0.86944c-0.48018,0 -0.86944,-0.38926 -0.86944,-0.86944z" fill="#ffffff" stroke-width="0.5"/><path d="M104.87276,222.33352c0,-0.48018 0.38926,-0.86944 0.86944,-0.86944c0.48018,0 0.86944,0.38926 0.86944,0.86944c0,0.48018 -0.38926,0.86944 -0.86944,0.86944c-0.48018,0 -0.86944,-0.38926 -0.86944,-0.86944z" fill="#ffffff" stroke-width="0.5"/><path d="M109.88073,229.01082c0,-0.48018 0.38926,-0.86944 0.86944,-0.86944c0.48018,0 0.86944,0.38926 0.86944,0.86944c0,0.48018 -0.38926,0.86944 -0.86944,0.86944c-0.48018,0 -0.86944,-0.38926 -0.86944,-0.86944z" fill="#ffffff" stroke-width="0.5"/><path d="M98.47368,231.51481c0,-0.48018 0.38926,-0.86945 0.86944,-0.86945c0.48018,0 0.86944,0.38927 0.86944,0.86945c0,0.48018 -0.38926,0.86944 -0.86944,0.86944c-0.48018,0 -0.86944,-0.38926 -0.86944,-0.86944z" fill="#ffffff" stroke-width="0.5"/><path d="M104.87276,232.90591c0,-0.48018 0.38926,-0.86944 0.86944,-0.86944c0.48018,0 0.86944,0.38926 0.86944,0.86944c0,0.48018 -0.38926,0.86944 -0.86944,0.86944c-0.48018,0 -0.86944,-0.38926 -0.86944,-0.86944z" fill="#ffffff" stroke-width="0.5"/><path d="M100.42122,227.61972c0,-0.48018 0.38926,-0.86944 0.86944,-0.86944c0.48018,0 0.86944,0.38926 0.86944,0.86944c0,0.48018 -0.38926,0.86944 -0.86944,0.86944c-0.48018,0 -0.86944,-0.38926 -0.86944,-0.86944z" fill="#ffffff" stroke-width="0.5"/><path d="M123.79178,226.50683c0,-0.48018 0.38926,-0.86944 0.86944,-0.86944c0.48018,0 0.86944,0.38926 0.86944,0.86944c0,0.48018 -0.38926,0.86944 -0.86944,0.86944c-0.48018,0 -0.86944,-0.38926 -0.86944,-0.86944z" fill="#ffffff" stroke-width="0.5"/><path d="M123.23533,235.13168c0,-0.48018 0.38926,-0.86944 0.86944,-0.86944c0.48018,0 0.86944,0.38926 0.86944,0.86944c0,0.48018 -0.38926,0.86944 -0.86944,0.86944c-0.48018,0 -0.86944,-0.38926 -0.86944,-0.86944z" fill="#ffffff" stroke-width="0.5"/><path d="M123.51356,240.13966c0,-0.48018 0.38926,-0.86944 0.86944,-0.86944c0.48018,0 0.86944,0.38926 0.86944,0.86944c0,0.48018 -0.38926,0.86944 -0.86944,0.86944c-0.48018,0 -0.86944,-0.38926 -0.86944,-0.86944z" fill="#ffffff" stroke-width="0.5"/><path d="M114.88871,250.43383c0,-0.48018 0.38926,-0.86944 0.86944,-0.86944c0.48018,0 0.86944,0.38926 0.86944,0.86944c0,0.48018 -0.38926,0.86944 -0.86944,0.86944c-0.48018,0 -0.86944,-0.38926 -0.86944,-0.86944z" fill="#ffffff" stroke-width="0.5"/><path d="M114.88871,259.89334c0,-0.48018 0.38926,-0.86944 0.86944,-0.86944c0.48018,0 0.86944,0.38926 0.86944,0.86944c0,0.48018 -0.38926,0.86944 -0.86944,0.86944c-0.48018,0 -0.86944,-0.38926 -0.86944,-0.86944z" fill="#ffffff" stroke-width="0.5"/><path d="M105.4292,257.94579c0,-0.48018 0.38926,-0.86944 0.86944,-0.86944c0.48018,0 0.86944,0.38926 0.86944,0.86944c0,0.48018 -0.38926,0.86944 -0.86944,0.86944c-0.48018,0 -0.86944,-0.38926 -0.86944,-0.86944z" fill="#ffffff" stroke-width="0.5"/><path d="M107.37674,244.86941c0,-0.48018 0.38926,-0.86944 0.86944,-0.86944c0.48018,0 0.86944,0.38926 0.86944,0.86944c0,0.48018 -0.38926,0.86944 -0.86944,0.86944c-0.48018,0 -0.86944,-0.38926 -0.86944,-0.86944z" fill="#ffffff" stroke-width="0.5"/><path d="M111.27184,261.28444c0,-0.48018 0.38926,-0.86944 0.86944,-0.86944c0.48018,0 0.86944,0.38926 0.86944,0.86944c0,0.48018 -0.38926,0.86944 -0.86944,0.86944c-0.48018,0 -0.86944,-0.38926 -0.86944,-0.86944z" fill="#ffffff" stroke-width="0.5"/><path d="M103.20343,272.13506c0,-0.48018 0.38926,-0.86944 0.86944,-0.86944c0.48018,0 0.86944,0.38926 0.86944,0.86944c0,0.48018 -0.38926,0.86944 -0.86944,0.86944c-0.48018,0 -0.86944,-0.38926 -0.86944,-0.86944z" fill="#ffffff" stroke-width="0.5"/><path d="M109.88073,271.57862c0,-0.48018 0.38926,-0.86944 0.86944,-0.86944c0.48018,0 0.86944,0.38926 0.86944,0.86944c0,0.48018 -0.38926,0.86944 -0.86944,0.86944c-0.48018,0 -0.86944,-0.38926 -0.86944,-0.86944z" fill="#ffffff" stroke-width="0.5"/><path d="M102.09055,248.48628c0,-0.48018 0.38926,-0.86944 0.86944,-0.86944c0.48018,0 0.86944,0.38926 0.86944,0.86944c0,0.48018 -0.38926,0.86944 -0.86944,0.86944c-0.48018,0 -0.86944,-0.38926 -0.86944,-0.86944z" fill="#ffffff" stroke-width="0.5"/><path d="M99.30834,224.00285c0,-0.48018 0.38926,-0.86944 0.86944,-0.86944c0.48018,0 0.86944,0.38926 0.86944,0.86944c0,0.48018 -0.38926,0.86944 -0.86944,0.86944c-0.48018,0 -0.86944,-0.38926 -0.86944,-0.86944z" fill="#ffffff" stroke-width="0.5"/><path d="M115.44515,224.28107c0,-0.48018 0.38926,-0.86944 0.86944,-0.86944c0.48018,0 0.86944,0.38926 0.86944,0.86944c0,0.48018 -0.38926,0.86944 -0.86944,0.86944c-0.48018,0 -0.86944,-0.38926 -0.86944,-0.86944z" fill="#ffffff" stroke-width="0.5"/><path d="M106.8203,197.01542c0,-0.48018 0.38926,-0.86945 0.86944,-0.86945c0.48018,0 0.86944,0.38927 0.86944,0.86945c0,0.48018 -0.38926,0.86944 -0.86944,0.86944c-0.48018,0 -0.86944,-0.38926 -0.86944,-0.86944z" fill="#ffffff" stroke-width="0.5"/><path d="M101.81233,262.67555c0,-0.48018 0.38926,-0.86944 0.86944,-0.86944c0.48018,0 0.86944,0.38926 0.86944,0.86944c0,0.48018 -0.38926,0.86944 -0.86944,0.86944c-0.48018,0 -0.86944,-0.38926 -0.86944,-0.86944z" fill="#ffffff" stroke-width="0.5"/><path d="M93.4657,223.16818c0,-0.48018 0.38926,-0.86944 0.86944,-0.86944c0.48018,0 0.86944,0.38926 0.86944,0.86944c0,0.48018 -0.38926,0.86944 -0.86944,0.86944c-0.48018,0 -0.86944,-0.38926 -0.86944,-0.86944z" fill="#ffffff" stroke-width="0.5"/><path d="M93.74392,228.7326c0,-0.48018 0.38926,-0.86944 0.86944,-0.86944c0.48018,0 0.86944,0.38926 0.86944,0.86944c0,0.48018 -0.38926,0.86944 -0.86944,0.86944c-0.48018,0 -0.86944,-0.38926 -0.86944,-0.86944z" fill="#ffffff" stroke-width="0.5"/><path d="M93.74392,214.54334c0,-0.48018 0.38926,-0.86944 0.86944,-0.86944c0.48018,0 0.86944,0.38926 0.86944,0.86944c0,0.48018 -0.38926,0.86944 -0.86944,0.86944c-0.48018,0 -0.86944,-0.38926 -0.86944,-0.86944z" fill="#ffffff" stroke-width="0.5"/><path d="M96.52613,211.76113c0,-0.48018 0.38926,-0.86944 0.86944,-0.86944c0.48018,0 0.86944,0.38926 0.86944,0.86944c0,0.48018 -0.38926,0.86944 -0.86944,0.86944c-0.48018,0 -0.86944,-0.38926 -0.86944,-0.86944z" fill="#ffffff" stroke-width="0.5"/><path d="M117.67092,237.07923c0,-0.48018 0.38926,-0.86944 0.86944,-0.86944c0.48018,0 0.86944,0.38926 0.86944,0.86944c0,0.48018 -0.38926,0.86944 -0.86944,0.86944c-0.48018,0 -0.86944,-0.38926 -0.86944,-0.86944z" fill="#ffffff" stroke-width="0.5"/><path d="M120.45313,228.45438c0,-0.48018 0.38926,-0.86944 0.86944,-0.86944c0.48018,0 0.86944,0.38926 0.86944,0.86944c0,0.48018 -0.38926,0.86944 -0.86944,0.86944c-0.48018,0 -0.86944,-0.38926 -0.86944,-0.86944z" fill="#ffffff" stroke-width="0.5"/></g><g stroke="none" stroke-linecap="butt"><g fill="#51a27b" stroke-width="0"><path d="M127.26444,281.10822v-117.43485h12.57185v117.43485z"/><path d="M119.43668,221.83158v-13.98034h10.06426v13.98034z"/><path d="M118.31843,221.83158v-38.02652h5.96401v38.02652z"/><path d="M137.3287,230.21979v-7.82899h10.43701v7.82899z"/><path d="M144.84583,229.66057v-34.67124h3.2305v34.67124z"/></g><path d="M131.09852,176.64185c0,-0.72038 0.38926,-1.30437 0.86944,-1.30437c0.48018,0 0.86944,0.58398 0.86944,1.30437c0,0.72038 -0.38926,1.30437 -0.86944,1.30437c-0.48018,0 -0.86944,-0.58398 -0.86944,-1.30437z" fill="#ffffff" stroke-width="0.5"/><path d="M134.71539,178.72883c0,-0.72038 0.38926,-1.30436 0.86944,-1.30436c0.48018,0 0.86944,0.58398 0.86944,1.30436c0,0.72038 -0.38926,1.30436 -0.86944,1.30436c-0.48018,0 -0.86944,-0.58398 -0.86944,-1.30436z" fill="#ffffff" stroke-width="0.5"/><path d="M132.21141,185.82458c0,-0.72038 0.38926,-1.30437 0.86944,-1.30437c0.48018,0 0.86944,0.58398 0.86944,1.30437c0,0.72038 -0.38926,1.30436 -0.86944,1.30436c-0.48018,0 -0.86944,-0.58398 -0.86944,-1.30436z" fill="#ffffff" stroke-width="0.5"/><path d="M137.21938,187.49417c0,-0.72038 0.38926,-1.30437 0.86944,-1.30437c0.48018,0 0.86944,0.58398 0.86944,1.30437c0,0.72038 -0.38926,1.30436 -0.86944,1.30436c-0.48018,0 -0.86944,-0.58398 -0.86944,-1.30436z" fill="#ffffff" stroke-width="0.5"/><path d="M128.87276,200.43348c0,-0.72038 0.38926,-1.30436 0.86944,-1.30436c0.48018,0 0.86944,0.58398 0.86944,1.30436c0,0.72038 -0.38926,1.30437 -0.86944,1.30437c-0.48018,0 -0.86944,-0.58398 -0.86944,-1.30437z" fill="#ffffff" stroke-width="0.5"/><path d="M133.88073,210.451c0,-0.72038 0.38926,-1.30436 0.86944,-1.30436c0.48018,0 0.86944,0.58398 0.86944,1.30436c0,0.72038 -0.38926,1.30437 -0.86944,1.30437c-0.48018,0 -0.86944,-0.58398 -0.86944,-1.30437z" fill="#ffffff" stroke-width="0.5"/><path d="M122.47368,214.20758c0,-0.72038 0.38926,-1.30437 0.86944,-1.30437c0.48018,0 0.86944,0.58398 0.86944,1.30437c0,0.72038 -0.38926,1.30437 -0.86944,1.30437c-0.48018,0 -0.86944,-0.58399 -0.86944,-1.30437z" fill="#ffffff" stroke-width="0.5"/><path d="M128.87276,216.29456c0,-0.72038 0.38926,-1.30436 0.86944,-1.30436c0.48018,0 0.86944,0.58398 0.86944,1.30436c0,0.72038 -0.38926,1.30436 -0.86944,1.30436c-0.48018,0 -0.86944,-0.58398 -0.86944,-1.30436z" fill="#ffffff" stroke-width="0.5"/><path d="M124.42122,208.36402c0,-0.72038 0.38926,-1.30436 0.86944,-1.30436c0.48018,0 0.86944,0.58398 0.86944,1.30436c0,0.72038 -0.38926,1.30437 -0.86944,1.30437c-0.48018,0 -0.86944,-0.58398 -0.86944,-1.30437z" fill="#ffffff" stroke-width="0.5"/><path d="M147.79178,206.69443c0,-0.72038 0.38926,-1.30436 0.86944,-1.30436c0.48018,0 0.86944,0.58398 0.86944,1.30436c0,0.72038 -0.38926,1.30437 -0.86944,1.30437c-0.48018,0 -0.86944,-0.58398 -0.86944,-1.30437z" fill="#ffffff" stroke-width="0.5"/><path d="M147.23533,219.63374c0,-0.72038 0.38926,-1.30436 0.86944,-1.30436c0.48018,0 0.86944,0.58398 0.86944,1.30436c0,0.72038 -0.38926,1.30436 -0.86944,1.30436c-0.48018,0 -0.86944,-0.58398 -0.86944,-1.30436z" fill="#ffffff" stroke-width="0.5"/><path d="M147.51356,227.14688c0,-0.72038 0.38926,-1.30437 0.86944,-1.30437c0.48018,0 0.86944,0.58398 0.86944,1.30437c0,0.72038 -0.38926,1.30436 -0.86944,1.30436c-0.48018,0 -0.86944,-0.58398 -0.86944,-1.30436z" fill="#ffffff" stroke-width="0.5"/><path d="M138.8887,242.59058c0,-0.72038 0.38926,-1.30436 0.86944,-1.30436c0.48018,0 0.86944,0.58398 0.86944,1.30436c0,0.72038 -0.38926,1.30436 -0.86944,1.30436c-0.48018,0 -0.86944,-0.58398 -0.86944,-1.30436z" fill="#ffffff" stroke-width="0.5"/><path d="M138.8887,256.78207c0,-0.72039 0.38926,-1.30436 0.86944,-1.30436c0.48018,0 0.86944,0.58398 0.86944,1.30436c0,0.72039 -0.38926,1.30437 -0.86944,1.30437c-0.48018,0 -0.86944,-0.58398 -0.86944,-1.30437z" fill="#ffffff" stroke-width="0.5"/><path d="M129.4292,253.86029c0,-0.72038 0.38926,-1.30437 0.86944,-1.30437c0.48018,0 0.86944,0.58398 0.86944,1.30437c0,0.72038 -0.38926,1.30436 -0.86944,1.30436c-0.48018,0 -0.86944,-0.58398 -0.86944,-1.30436z" fill="#ffffff" stroke-width="0.5"/><path d="M131.37674,234.24263c0,-0.72038 0.38926,-1.30436 0.86944,-1.30436c0.48018,0 0.86944,0.58398 0.86944,1.30436c0,0.72038 -0.38926,1.30437 -0.86944,1.30437c-0.48018,0 -0.86944,-0.58398 -0.86944,-1.30437z" fill="#ffffff" stroke-width="0.5"/><path d="M135.27184,258.86905c0,-0.72039 0.38926,-1.30437 0.86944,-1.30437c0.48018,0 0.86944,0.58398 0.86944,1.30437c0,0.72039 -0.38926,1.30437 -0.86944,1.30437c-0.48018,0 -0.86944,-0.58399 -0.86944,-1.30437z" fill="#ffffff" stroke-width="0.5"/><path d="M127.20343,275.14754c0,-0.72039 0.38926,-1.30437 0.86944,-1.30437c0.48018,0 0.86944,0.58398 0.86944,1.30437c0,0.72039 -0.38926,1.30437 -0.86944,1.30437c-0.48018,0 -0.86944,-0.58398 -0.86944,-1.30437z" fill="#ffffff" stroke-width="0.5"/><path d="M133.88073,274.31275c0,-0.72039 0.38926,-1.30437 0.86944,-1.30437c0.48018,0 0.86944,0.58398 0.86944,1.30437c0,0.72039 -0.38926,1.30437 -0.86944,1.30437c-0.48018,0 -0.86944,-0.58398 -0.86944,-1.30437z" fill="#ffffff" stroke-width="0.5"/><path d="M126.09055,239.66879c0,-0.72038 0.38926,-1.30436 0.86944,-1.30436c0.48018,0 0.86944,0.58398 0.86944,1.30436c0,0.72038 -0.38926,1.30436 -0.86944,1.30436c-0.48018,0 -0.86944,-0.58398 -0.86944,-1.30436z" fill="#ffffff" stroke-width="0.5"/><path d="M123.30834,202.93786c0,-0.72038 0.38926,-1.30437 0.86944,-1.30437c0.48018,0 0.86944,0.58398 0.86944,1.30437c0,0.72038 -0.38926,1.30436 -0.86944,1.30436c-0.48018,0 -0.86944,-0.58398 -0.86944,-1.30436z" fill="#ffffff" stroke-width="0.5"/><path d="M139.44515,203.35525c0,-0.72038 0.38927,-1.30437 0.86945,-1.30437c0.48018,0 0.86944,0.58398 0.86944,1.30437c0,0.72038 -0.38926,1.30436 -0.86944,1.30436c-0.48018,0 -0.86945,-0.58398 -0.86945,-1.30436z" fill="#ffffff" stroke-width="0.5"/><path d="M130.8203,162.45035c0,-0.72038 0.38926,-1.30437 0.86944,-1.30437c0.48018,0 0.86944,0.58399 0.86944,1.30437c0,0.72038 -0.38926,1.30437 -0.86944,1.30437c-0.48018,0 -0.86944,-0.58398 -0.86944,-1.30437z" fill="#ffffff" stroke-width="0.5"/><path d="M125.81233,260.95604c0,-0.72039 0.38926,-1.30436 0.86944,-1.30436c0.48018,0 0.86944,0.58398 0.86944,1.30436c0,0.72039 -0.38926,1.30437 -0.86944,1.30437c-0.48018,0 -0.86944,-0.58398 -0.86944,-1.30437z" fill="#ffffff" stroke-width="0.5"/><path d="M117.4657,201.68566c0,-0.72038 0.38926,-1.30437 0.86944,-1.30437c0.48018,0 0.86944,0.58398 0.86944,1.30437c0,0.72038 -0.38926,1.30436 -0.86944,1.30436c-0.48018,0 -0.86944,-0.58398 -0.86944,-1.30436z" fill="#ffffff" stroke-width="0.5"/><path d="M117.74392,210.03361c0,-0.72038 0.38926,-1.30436 0.86944,-1.30436c0.48018,0 0.86944,0.58398 0.86944,1.30436c0,0.72038 -0.38926,1.30437 -0.86944,1.30437c-0.48018,0 -0.86944,-0.58398 -0.86944,-1.30437z" fill="#ffffff" stroke-width="0.5"/><path d="M117.74392,188.74636c0,-0.72038 0.38926,-1.30437 0.86944,-1.30437c0.48018,0 0.86944,0.58398 0.86944,1.30437c0,0.72038 -0.38926,1.30436 -0.86944,1.30436c-0.48018,0 -0.86944,-0.58398 -0.86944,-1.30436z" fill="#ffffff" stroke-width="0.5"/><path d="M120.52613,184.57239c0,-0.72038 0.38926,-1.30436 0.86944,-1.30436c0.48018,0 0.86944,0.58398 0.86944,1.30436c0,0.72038 -0.38926,1.30436 -0.86944,1.30436c-0.48018,0 -0.86944,-0.58398 -0.86944,-1.30436z" fill="#ffffff" stroke-width="0.5"/><path d="M141.67092,222.55552c0,-0.72038 0.38926,-1.30437 0.86944,-1.30437c0.48018,0 0.86944,0.58398 0.86944,1.30437c0,0.72038 -0.38926,1.30436 -0.86944,1.30436c-0.48018,0 -0.86944,-0.58398 -0.86944,-1.30436z" fill="#ffffff" stroke-width="0.5"/><path d="M144.45313,209.61621c0,-0.72038 0.38926,-1.30437 0.86944,-1.30437c0.48018,0 0.86944,0.58399 0.86944,1.30437c0,0.72038 -0.38926,1.30437 -0.86944,1.30437c-0.48018,0 -0.86944,-0.58398 -0.86944,-1.30437z" fill="#ffffff" stroke-width="0.5"/></g><g stroke="none" stroke-linecap="butt"><g fill="#51a27b" stroke-width="0"><path d="M420.26444,400.10822v-78.27758h12.57186v78.27758z"/><path d="M412.43668,360.59668v-9.31876h10.06426v9.31876z"/><path d="M411.31843,360.59668v-25.34703h5.96401v25.34703z"/><path d="M430.3287,366.18794v-5.2185h10.43701v5.2185z"/><path d="M437.84583,365.81519v-23.11052h3.2305v23.11052z"/></g><path d="M424.09852,330.47493c0,-0.48018 0.38926,-0.86944 0.86944,-0.86944c0.48018,0 0.86944,0.38926 0.86944,0.86944c0,0.48018 -0.38926,0.86944 -0.86944,0.86944c-0.48018,0 -0.86944,-0.38926 -0.86944,-0.86944z" fill="#ffffff" stroke-width="0.5"/><path d="M427.71539,331.86603c0,-0.48018 0.38926,-0.86944 0.86944,-0.86944c0.48018,0 0.86944,0.38926 0.86944,0.86944c0,0.48018 -0.38926,0.86944 -0.86944,0.86944c-0.48018,0 -0.86944,-0.38926 -0.86944,-0.86944z" fill="#ffffff" stroke-width="0.5"/><path d="M425.21141,336.59579c0,-0.48018 0.38926,-0.86944 0.86944,-0.86944c0.48018,0 0.86944,0.38926 0.86944,0.86944c0,0.48018 -0.38926,0.86944 -0.86944,0.86944c-0.48018,0 -0.86944,-0.38926 -0.86944,-0.86944z" fill="#ffffff" stroke-width="0.5"/><path d="M430.21938,337.70867c0,-0.48018 0.38926,-0.86944 0.86944,-0.86944c0.48018,0 0.86944,0.38926 0.86944,0.86944c0,0.48018 -0.38926,0.86944 -0.86944,0.86944c-0.48018,0 -0.86944,-0.38926 -0.86944,-0.86944z" fill="#ffffff" stroke-width="0.5"/><path d="M421.87276,346.33352c0,-0.48018 0.38926,-0.86944 0.86944,-0.86944c0.48018,0 0.86944,0.38926 0.86944,0.86944c0,0.48018 -0.38926,0.86944 -0.86944,0.86944c-0.48018,0 -0.86944,-0.38926 -0.86944,-0.86944z" fill="#ffffff" stroke-width="0.5"/><path d="M426.88073,353.01082c0,-0.48018 0.38926,-0.86944 0.86944,-0.86944c0.48018,0 0.86944,0.38926 0.86944,0.86944c0,0.48018 -0.38926,0.86944 -0.86944,0.86944c-0.48018,0 -0.86944,-0.38926 -0.86944,-0.86944z" fill="#ffffff" stroke-width="0.5"/><path d="M415.47368,355.51481c0,-0.48018 0.38926,-0.86944 0.86944,-0.86944c0.48018,0 0.86944,0.38926 0.86944,0.86944c0,0.48018 -0.38926,0.86944 -0.86944,0.86944c-0.48018,0 -0.86944,-0.38926 -0.86944,-0.86944z" fill="#ffffff" stroke-width="0.5"/><path d="M421.87276,356.90591c0,-0.48018 0.38926,-0.86944 0.86944,-0.86944c0.48018,0 0.86944,0.38926 0.86944,0.86944c0,0.48018 -0.38926,0.86944 -0.86944,0.86944c-0.48018,0 -0.86944,-0.38926 -0.86944,-0.86944z" fill="#ffffff" stroke-width="0.5"/><path d="M417.42122,351.61972c0,-0.48018 0.38926,-0.86944 0.86944,-0.86944c0.48018,0 0.86944,0.38926 0.86944,0.86944c0,0.48018 -0.38926,0.86944 -0.86944,0.86944c-0.48018,0 -0.86944,-0.38926 -0.86944,-0.86944z" fill="#ffffff" stroke-width="0.5"/><path d="M440.79178,350.50683c0,-0.48018 0.38926,-0.86944 0.86944,-0.86944c0.48018,0 0.86944,0.38926 0.86944,0.86944c0,0.48018 -0.38926,0.86944 -0.86944,0.86944c-0.48018,0 -0.86944,-0.38926 -0.86944,-0.86944z" fill="#ffffff" stroke-width="0.5"/><path d="M440.23533,359.13168c0,-0.48018 0.38926,-0.86944 0.86944,-0.86944c0.48018,0 0.86945,0.38926 0.86945,0.86944c0,0.48018 -0.38927,0.86944 -0.86945,0.86944c-0.48018,0 -0.86944,-0.38926 -0.86944,-0.86944z" fill="#ffffff" stroke-width="0.5"/><path d="M440.51356,364.13966c0,-0.48018 0.38926,-0.86944 0.86944,-0.86944c0.48018,0 0.86944,0.38926 0.86944,0.86944c0,0.48018 -0.38926,0.86944 -0.86944,0.86944c-0.48018,0 -0.86944,-0.38926 -0.86944,-0.86944z" fill="#ffffff" stroke-width="0.5"/><path d="M431.88871,374.43383c0,-0.48018 0.38926,-0.86944 0.86944,-0.86944c0.48018,0 0.86944,0.38926 0.86944,0.86944c0,0.48018 -0.38926,0.86944 -0.86944,0.86944c-0.48018,0 -0.86944,-0.38926 -0.86944,-0.86944z" fill="#ffffff" stroke-width="0.5"/><path d="M431.88871,383.89334c0,-0.48018 0.38926,-0.86944 0.86944,-0.86944c0.48018,0 0.86944,0.38926 0.86944,0.86944c0,0.48018 -0.38926,0.86944 -0.86944,0.86944c-0.48018,0 -0.86944,-0.38926 -0.86944,-0.86944z" fill="#ffffff" stroke-width="0.5"/><path d="M422.4292,381.94579c0,-0.48018 0.38926,-0.86944 0.86944,-0.86944c0.48018,0 0.86944,0.38926 0.86944,0.86944c0,0.48018 -0.38926,0.86944 -0.86944,0.86944c-0.48018,0 -0.86944,-0.38926 -0.86944,-0.86944z" fill="#ffffff" stroke-width="0.5"/><path d="M424.37674,368.86941c0,-0.48018 0.38926,-0.86944 0.86944,-0.86944c0.48018,0 0.86944,0.38926 0.86944,0.86944c0,0.48018 -0.38926,0.86944 -0.86944,0.86944c-0.48018,0 -0.86944,-0.38926 -0.86944,-0.86944z" fill="#ffffff" stroke-width="0.5"/><path d="M428.27184,385.28444c0,-0.48018 0.38926,-0.86944 0.86944,-0.86944c0.48018,0 0.86944,0.38926 0.86944,0.86944c0,0.48018 -0.38926,0.86944 -0.86944,0.86944c-0.48018,0 -0.86944,-0.38926 -0.86944,-0.86944z" fill="#ffffff" stroke-width="0.5"/><path d="M420.20343,396.13506c0,-0.48018 0.38926,-0.86944 0.86944,-0.86944c0.48018,0 0.86944,0.38926 0.86944,0.86944c0,0.48018 -0.38926,0.86944 -0.86944,0.86944c-0.48018,0 -0.86944,-0.38926 -0.86944,-0.86944z" fill="#ffffff" stroke-width="0.5"/><path d="M426.88073,395.57862c0,-0.48018 0.38926,-0.86944 0.86944,-0.86944c0.48018,0 0.86944,0.38926 0.86944,0.86944c0,0.48018 -0.38926,0.86944 -0.86944,0.86944c-0.48018,0 -0.86944,-0.38926 -0.86944,-0.86944z" fill="#ffffff" stroke-width="0.5"/><path d="M419.09055,372.48628c0,-0.48018 0.38926,-0.86944 0.86944,-0.86944c0.48018,0 0.86944,0.38926 0.86944,0.86944c0,0.48018 -0.38926,0.86944 -0.86944,0.86944c-0.48018,0 -0.86944,-0.38926 -0.86944,-0.86944z" fill="#ffffff" stroke-width="0.5"/><path d="M416.30834,348.00285c0,-0.48018 0.38926,-0.86944 0.86944,-0.86944c0.48018,0 0.86944,0.38926 0.86944,0.86944c0,0.48018 -0.38926,0.86944 -0.86944,0.86944c-0.48018,0 -0.86944,-0.38926 -0.86944,-0.86944z" fill="#ffffff" stroke-width="0.5"/><path d="M432.44515,348.28107c0,-0.48018 0.38926,-0.86944 0.86944,-0.86944c0.48018,0 0.86944,0.38926 0.86944,0.86944c0,0.48018 -0.38926,0.86944 -0.86944,0.86944c-0.48018,0 -0.86944,-0.38926 -0.86944,-0.86944z" fill="#ffffff" stroke-width="0.5"/><path d="M423.8203,321.01542c0,-0.48018 0.38926,-0.86944 0.86944,-0.86944c0.48018,0 0.86944,0.38926 0.86944,0.86944c0,0.48018 -0.38926,0.86944 -0.86944,0.86944c-0.48018,0 -0.86944,-0.38926 -0.86944,-0.86944z" fill="#ffffff" stroke-width="0.5"/><path d="M418.81233,386.67555c0,-0.48018 0.38926,-0.86944 0.86944,-0.86944c0.48018,0 0.86944,0.38926 0.86944,0.86944c0,0.48018 -0.38926,0.86944 -0.86944,0.86944c-0.48018,0 -0.86944,-0.38926 -0.86944,-0.86944z" fill="#ffffff" stroke-width="0.5"/><path d="M410.4657,347.16818c0,-0.48018 0.38927,-0.86944 0.86945,-0.86944c0.48018,0 0.86944,0.38926 0.86944,0.86944c0,0.48018 -0.38926,0.86944 -0.86944,0.86944c-0.48018,0 -0.86945,-0.38926 -0.86945,-0.86944z" fill="#ffffff" stroke-width="0.5"/><path d="M410.74392,352.7326c0,-0.48018 0.38926,-0.86944 0.86944,-0.86944c0.48018,0 0.86944,0.38926 0.86944,0.86944c0,0.48018 -0.38926,0.86944 -0.86944,0.86944c-0.48018,0 -0.86944,-0.38926 -0.86944,-0.86944z" fill="#ffffff" stroke-width="0.5"/><path d="M410.74392,338.54334c0,-0.48018 0.38926,-0.86944 0.86944,-0.86944c0.48018,0 0.86944,0.38926 0.86944,0.86944c0,0.48018 -0.38926,0.86944 -0.86944,0.86944c-0.48018,0 -0.86944,-0.38926 -0.86944,-0.86944z" fill="#ffffff" stroke-width="0.5"/><path d="M413.52613,335.76113c0,-0.48018 0.38926,-0.86944 0.86944,-0.86944c0.48018,0 0.86945,0.38926 0.86945,0.86944c0,0.48018 -0.38927,0.86944 -0.86945,0.86944c-0.48018,0 -0.86944,-0.38926 -0.86944,-0.86944z" fill="#ffffff" stroke-width="0.5"/><path d="M434.67092,361.07923c0,-0.48018 0.38926,-0.86944 0.86944,-0.86944c0.48018,0 0.86944,0.38926 0.86944,0.86944c0,0.48018 -0.38926,0.86944 -0.86944,0.86944c-0.48018,0 -0.86944,-0.38926 -0.86944,-0.86944z" fill="#ffffff" stroke-width="0.5"/><path d="M437.45313,352.45438c0,-0.48018 0.38926,-0.86945 0.86944,-0.86945c0.48018,0 0.86944,0.38927 0.86944,0.86945c0,0.48018 -0.38926,0.86944 -0.86944,0.86944c-0.48018,0 -0.86944,-0.38926 -0.86944,-0.86944z" fill="#ffffff" stroke-width="0.5"/></g><g><path d="M239.31366,322.53685c0,5.7804 -11.88221,10.46635 -26.53966,10.46635c-14.65745,0 -26.53966,-4.68594 -26.53966,-10.46635c0,-5.7804 11.88221,-10.46635 26.53966,-10.46635c14.65745,0 26.53966,4.68594 26.53966,10.46635z" fill="#9a9a9a" stroke="none" stroke-width="0" stroke-linecap="butt"/><path d="M186.08482,322.53685l-0.59808,21.82981l51.43462,-0.29904l1.79423,-20.03558c0,0 -4.86225,4.13361 -11.35336,6.30993c-5.83035,1.95478 -13.09039,1.98379 -17.3741,1.86209c-4.63205,-0.13159 -12.86489,-0.63223 -18.00715,-3.21922c-4.23732,-2.13172 -5.89616,-6.448 -5.89616,-6.448z" fill="#8d8d8d" stroke="#000000" stroke-width="0" stroke-linecap="round"/><path d="M229.07627,320.89214c0,3.05535 -7.56445,5.53221 -16.89567,5.53221c-9.33122,0 -16.89567,-2.47686 -16.89567,-5.53221c0,-3.05535 7.56445,-5.53221 16.89567,-5.53221c9.33122,0 16.89567,2.47686 16.89567,5.53221z" fill="#0d7d7d" stroke="none" stroke-width="0" stroke-linecap="butt"/><path d="M194.98588,283.96089l-1.19615,37.97788" fill="none" stroke="#710000" stroke-width="2.5" stroke-linecap="round"/><path d="M235.35607,286.95127l-3.28942,37.37981" fill="none" stroke="#710000" stroke-width="2.5" stroke-linecap="round"/><path d="M247.61665,280.67146c0,5.45009 -13.92394,9.86827 -31.1,9.86827c-17.17606,0 -31.1,-4.41817 -31.1,-9.86827c0,-5.45009 13.92394,-9.86827 31.1,-9.86827c17.17606,0 31.1,4.41817 31.1,9.86827z" fill="#710000" stroke="#710000" stroke-width="2.5" stroke-linecap="butt"/></g></g></g></svg>