<svg version="1.1" xmlns="http://www.w3.org/2000/svg" xmlns:xlink="http://www.w3.org/1999/xlink" width="45.8" height="94.10735" viewBox="0,0,45.8,94.10735"><g transform="translate(-215.1,-132.94632)"><g data-paper-data="{&quot;isPaintingLayer&quot;:true}" fill-rule="nonzero" stroke="none" stroke-width="0" stroke-linecap="butt" stroke-linejoin="miter" stroke-miterlimit="10" stroke-dasharray="" stroke-dashoffset="0" style="mix-blend-mode: normal"><path d="M215.64926,172.67647v-39.73015h43.75809v39.73015z" fill="#b74949"/><path d="M234.14118,195.19632v-26.18162h10.06985v26.18162z" fill="#b74949"/><path d="M215.1,177.25368v-6.40809h6.40809v6.40809z" fill="#b74949"/><path d="M224.25441,177.07059v-7.50662h5.67574v7.50662z" fill="#b74949"/><path d="M246.77426,177.07059v-6.40809h4.57721v6.40809z" fill="#b74949"/><path d="M255.19632,178.35221v-5.85882h4.39412v5.85882z" fill="#b74949"/><path d="M219.12794,200.13971v-6.04191h37.58897v6.04191z" fill="#b74949"/><path d="M219.31103,225.22279v-31.125h10.98529v31.125z" fill="#b74949"/><path d="M234.87353,226.6875v-32.58971h8.97132v32.58971z" fill="#b74949"/><path d="M251.74559,227.05368v-32.77279h9.15441v32.77279z" fill="#b74949"/><path d="M224.25441,165.71912v-24.35074h25.08309v24.35074z" fill="#f5ff66"/><path d="M231.57794,158.94485v-11.53456h11.71765v11.53456z" fill="#000000"/></g></g></svg>