<svg version="1.1" xmlns="http://www.w3.org/2000/svg" xmlns:xlink="http://www.w3.org/1999/xlink" width="58.49999" height="178.27027" viewBox="0,0,58.49999,178.27027"><g transform="translate(-167.02219,-48.11927)"><g data-paper-data="{&quot;isPaintingLayer&quot;:true}" fill-rule="nonzero" stroke-linejoin="miter" stroke-miterlimit="10" stroke-dasharray="" stroke-dashoffset="0" style="mix-blend-mode: normal"><g><g stroke-linecap="round"><g stroke="#000000" stroke-width="0"><path d="M167.02219,205.4355l25.1875,-136.46989l-2.43751,144.55035z" fill="#216d00"/><path d="M188.95967,213.51596l2.43751,-142.75467l17.06252,140.95902z" fill="#31a300"/><path d="M207.64718,211.72027l-14.62501,-133.77638l32.50001,118.51329z" fill="#3dcc00"/></g><path d="M196.49132,225.63954l0.45794,-12.364" fill="none" stroke="#940000" stroke-width="1.5"/><g stroke="#000000" stroke-width="0"><path d="M171.83042,162.03497l19.28288,-104.47767l-1.86608,110.66383z" fill="#216d00"/><path d="M188.62515,168.22113l1.86608,-109.28911l13.06259,107.91439z" fill="#31a300"/><path d="M202.93181,166.84641l-11.1965,-102.41559l24.88113,90.73056z" fill="#3dcc00"/></g><g stroke="#000000" stroke-width="0"><path d="M177.17619,123.56819l13.92521,-75.44892l-1.34761,79.91628z" fill="#216d00"/><path d="M189.30458,128.03555l1.34761,-78.92352l9.43321,77.93076z" fill="#31a300"/><path d="M199.63619,127.04279l-8.08561,-73.95977l17.968,65.5214z" fill="#3dcc00"/></g></g><path d="M181.93898,108.59523l0.71429,16.07143" fill="none" stroke="#ffffff" stroke-width="2.5" stroke-linecap="round"/><path d="M200.51041,106.09523l1.78572,18.92857" fill="none" stroke="#ffffff" stroke-width="2.5" stroke-linecap="round"/><path d="M199.71041,129.11666c0.75,0 0.75,0.75 0.75,0.75v0.75c0,1.15582 0.07718,2.63352 -0.28218,3.71734c-0.99776,3.0092 -3.2062,2.86228 -5.88708,2.73933c-4.41624,-0.20254 -6.88748,-2.36617 -9.43075,-5.75667c0,0 -0.45,-0.6 0.15,-1.05c0.6,-0.45 1.05,0.15 1.05,0.15c2.27222,3.03009 4.34176,4.98574 8.29782,5.15817c0.60384,0.02632 3.06136,0.47277 3.53992,-0.20452c1.00266,-1.41905 1.06226,-3.04291 1.06226,-4.75365v-0.75c0,0 0,-0.75 0.75,-0.75z" fill="#ffffff" stroke="none" stroke-width="0.5" stroke-linecap="butt"/><path d="M182.22639,119.31883l-2.84307,-6.73913l8.73981,0.2106z" fill="none" stroke="#ffffff" stroke-width="2.5" stroke-linecap="round"/><path d="M200.48726,119.75362l-2.84307,-6.73913l8.73981,0.2106z" fill="none" stroke="#ffffff" stroke-width="2.5" stroke-linecap="round"/><path d="M187.20941,113.66666h12.3913" fill="none" stroke="#ffffff" stroke-width="2.5" stroke-linecap="round"/></g></g></g></svg>