<svg version="1.1" xmlns="http://www.w3.org/2000/svg" xmlns:xlink="http://www.w3.org/1999/xlink" width="388.39876" height="288.67296" viewBox="0,0,388.39876,288.67296"><g transform="translate(28.19272,-42.82789)"><g data-paper-data="{&quot;isPaintingLayer&quot;:true}" fill-rule="nonzero" stroke-linejoin="miter" stroke-miterlimit="10" stroke-dasharray="" stroke-dashoffset="0" style="mix-blend-mode: normal"><g><g><g stroke-linecap="round"><g stroke="#000000" stroke-width="0"><g><path d="M315.36433,255.58341l-112.07468,-115.23917l133.24523,97.57256z" fill="#17ce6d"/><path d="M337.00007,237.30571l-130.18978,-95.24659l144.17315,73.07393z" fill="#14b25d"/><path d="M349.44196,215.89004l-141.55538,-73.9768l141.08183,54.31188z" fill="#119e53"/></g><g><path d="M278.65857,222.16043l-89.13847,-91.65534l105.97643,77.60423z" fill="#17ce6d"/><path d="M295.86652,207.62328l-103.54628,-75.75427l114.66794,58.11927z" fill="#14b25d"/><path d="M305.76216,190.59034l-112.58591,-58.83736l112.20927,43.19689z" fill="#119e53"/></g><g><path d="M244.87705,190.17706l-64.92802,-66.76129l77.19271,56.52654z" fill="#17ce6d"/><path d="M257.41125,179.58829l-75.42261,-55.17903l83.52356,42.33379z" fill="#14b25d"/><path d="M264.61917,167.18157l-82.00702,-42.85684l81.73268,31.46439z" fill="#119e53"/></g></g><path d="M346.20046,240.38227l-7.47243,-6.15606" fill="none" stroke="#580000" stroke-width="1.5"/></g><g fill="#000000" stroke="none" stroke-width="0" stroke-linecap="butt"><path d="M246.11035,187.5705l-10.95458,-8.33921l9.24075,-12.13886l10.95458,8.33921z"/><path d="M248.66954,173.15115l-1.77642,-1.35231l7.66306,-10.06637l1.77642,1.35231z"/><path d="M262.02862,167.88853l-10.52692,-8.01366l6.76153,-8.88209l10.52692,8.01366z"/></g><path d="M269.92778,166.41949c0,0 2.14314,12.12221 -0.41724,15.58572c-1.39312,1.88451 -4.61882,5.87993 -8.22283,6.84435c-3.30436,0.88423 -7.06615,-1.18374 -7.06615,-1.18374" fill="none" stroke="#000000" stroke-width="1.5" stroke-linecap="round"/></g><path d="M114.82608,78.15683l7.20784,-7.31672c0,0 159.4572,164.03999 198.93193,199.28052c3.83823,3.42652 20.12043,-25.16558 23.20998,-22.40488c24.18804,21.61353 13.82221,55.57705 13.82221,55.57705l-7.20784,7.31672z" fill="#5f2626" stroke="none" stroke-width="0" stroke-linecap="butt"/><path d="M158.09799,318.28986v-192.57558h11.98248v192.57558z" fill="#5f2626" stroke="none" stroke-width="0" stroke-linecap="butt"/><path d="M257.3814,317.43396v-96.71574h14.55016v96.71574z" fill="#5f2626" stroke="none" stroke-width="0" stroke-linecap="butt"/><path d="M84.05661,73.54951l0.92008,256.70134" fill="none" stroke="#000000" stroke-width="2.5" stroke-linecap="round"/><path d="M301.19466,63.88871c0,10.41696 -73.73588,5.9805 -164.69369,5.9805c-90.95781,0 -164.69369,4.43646 -164.69369,-5.9805c0,-10.41696 73.73588,-18.86157 164.69369,-18.86157c90.95781,0 164.69369,8.44461 164.69369,18.86157z" fill="#fff3b9" stroke="#000000" stroke-width="0" stroke-linecap="butt"/><path d="M-2.08856,54.66666l0.8,16.4l-25.6,-2.8c0,0 3.54909,-8.64305 6.95776,-10.51232c4.53309,-2.48589 17.84224,-3.08768 17.84224,-3.08768z" fill="#543d00" stroke="#000000" stroke-width="0.5" stroke-linecap="round"/><path d="M30.91144,51.26667l0.8,21.6l-25.6,-2.8c0,0 1.53124,-14.7549 3.12979,-17.49041c1.23288,-2.10976 2.34374,-0.60798 3.82797,-1.42191c4.53309,-2.48589 17.84224,0.11232 17.84224,0.11232z" fill="#543d00" stroke="#000000" stroke-width="0.5" stroke-linecap="round"/><path d="M63.11144,48.66667l0.8,21.6c0,0 -14.62299,3.15686 -19.27093,2.64849c-2.55177,-0.2791 -6.32907,-5.44849 -6.32907,-5.44849c0,0 1.53124,-14.7549 3.1298,-17.49041c1.23288,-2.10976 2.34373,-0.60798 3.82797,-1.42191c4.53309,-2.48589 17.84224,0.11232 17.84224,0.11232z" fill="#543d00" stroke="#000000" stroke-width="0.5" stroke-linecap="round"/><path d="M98.51144,46.86667l0.8,21.6c0,0 -14.623,3.15686 -19.27093,2.64849c-2.55177,-0.2791 -6.32907,-5.44849 -6.32907,-5.44849c0,0 1.53124,-14.7549 3.1298,-17.4904c1.23288,-2.10976 2.34373,-0.60798 3.82796,-1.42192c4.53309,-2.48589 17.84224,0.11232 17.84224,0.11232z" fill="#543d00" stroke="#000000" stroke-width="0.5" stroke-linecap="round"/><path d="M136.31144,44.26667l0.8,21.6c0,0 -14.62299,3.15686 -19.27093,2.64849c-2.55177,-0.2791 -6.32907,-5.44849 -6.32907,-5.44849c0,0 1.53124,-14.7549 3.1298,-17.4904c1.23288,-2.10976 2.34374,-0.60798 3.82797,-1.42191c4.53309,-2.48589 17.84224,0.11232 17.84224,0.11232z" fill="#543d00" stroke="#000000" stroke-width="0.5" stroke-linecap="round"/><path d="M174.11144,49.26667l-1.6,18c0,0 -14.623,3.15686 -19.27093,2.64849c-2.55177,-0.2791 -6.32907,-5.44849 -6.32907,-5.44849c0,0 1.53124,-14.7549 3.1298,-17.4904c1.23288,-2.10976 2.34373,-0.60798 3.82797,-1.42191c4.53309,-2.48589 20.24224,3.71232 20.24224,3.71232z" fill="#543d00" stroke="#000000" stroke-width="0.5" stroke-linecap="round"/><path d="M209.51144,49.86667l-1.6,18c0,0 -14.623,-0.04314 -19.27093,-0.55151c-2.55176,-0.2791 -6.32907,-2.24849 -6.32907,-2.24849c0,0 1.53125,-14.7549 3.1298,-17.4904c1.23289,-2.10976 4.34374,3.79202 5.82797,2.97808c4.53309,-2.48589 18.24224,-0.68768 18.24224,-0.68768z" fill="#543d00" stroke="#000000" stroke-width="0.5" stroke-linecap="round"/><path d="M246.11144,50.46667l-1.6,18c0,0 -14.623,-0.04314 -19.27093,-0.55151c-2.55176,-0.2791 -6.32907,-2.24849 -6.32907,-2.24849c0,0 1.53125,-14.7549 3.1298,-17.4904c1.23289,-2.10976 4.34374,3.79202 5.82797,2.97809c4.53309,-2.48589 18.24224,-0.68768 18.24224,-0.68768z" fill="#543d00" stroke="#000000" stroke-width="0.5" stroke-linecap="round"/><path d="M285.11144,60.26667l-1.6,9.2c0,0 -14.623,-0.04314 -19.27093,-0.55151c-2.55176,-0.2791 -6.32907,-2.24849 -6.32907,-2.24849c0,0 1.53125,-14.7549 3.1298,-17.4904c1.23289,-2.10976 4.34373,3.79202 5.82796,2.97809c3.31578,-1.81833 11.54112,7.05549 15.71962,7.44109c1.53402,0.14156 2.52262,0.67123 2.52262,0.67123z" fill="#543d00" stroke="#000000" stroke-width="0.5" stroke-linecap="round"/></g></g></g></svg>