<svg version="1.1" xmlns="http://www.w3.org/2000/svg" xmlns:xlink="http://www.w3.org/1999/xlink" width="72.65312" height="219.11482" viewBox="0,0,72.65312,219.11482"><g transform="translate(-211.62948,-19.30183)"><g data-paper-data="{&quot;isPaintingLayer&quot;:true}" fill-rule="nonzero" stroke-linejoin="miter" stroke-miterlimit="10" stroke-dasharray="" stroke-dashoffset="0" style="mix-blend-mode: normal"><g stroke-linecap="round"><g stroke="#000000" stroke-width="0"><g><path d="M211.62948,221.189l25.59372,-170.89995l3.30241,177.50478z" fill="#17ce6d"/><path d="M241.35121,227.79383l-3.30241,-173.37676l31.37294,170.89996z" fill="#14b25d"/><path d="M267.77053,224.49142l-28.89613,-169.24874l45.4082,156.03909z" fill="#119e53"/></g><g><path d="M216.3173,168.02967l20.35593,-135.92507l2.62656,141.17821z" fill="#17ce6d"/><path d="M239.95644,173.2828l-2.62656,-137.895l24.95242,135.92508z" fill="#14b25d"/><path d="M260.96902,170.65624l-22.98251,-134.61179l36.11536,124.10551z" fill="#119e53"/></g><g><path d="M221.67783,118.30899l14.82716,-99.00715l1.91317,102.83352z" fill="#17ce6d"/><path d="M238.89646,122.13536l-1.91318,-100.44204l18.17522,99.00716z" fill="#14b25d"/><path d="M254.20192,120.22217l-16.74035,-98.05056l26.30626,90.39783z" fill="#119e53"/></g></g><path d="M244.71041,237.66666l0.4,-10.4" fill="none" stroke="#580000" stroke-width="1.5"/></g><g fill="#000000" stroke="none" stroke-width="0" stroke-linecap="butt"><path d="M224.71041,117.66666v-14.8h16.4v14.8z"/><path d="M238.71041,110.46666v-2.4h13.6v2.4z"/><path d="M251.91041,118.46666v-14.22222h12v14.22222z"/></g><path d="M229.91041,124.66666c0,0 0.68061,4.56419 3.58853,6.81482c3.17163,2.45472 8.6895,2.61225 11.20853,2.57678c4.62968,-0.06521 13.60294,-9.79159 13.60294,-9.79159" fill="none" stroke="#000000" stroke-width="1.5" stroke-linecap="round"/></g></g></svg>