<svg version="1.1" xmlns="http://www.w3.org/2000/svg" xmlns:xlink="http://www.w3.org/1999/xlink" width="72.65312" height="219.11482" viewBox="0,0,72.65312,219.11482"><g transform="translate(-204.31174,-70.33621)"><g data-paper-data="{&quot;isPaintingLayer&quot;:true}" fill-rule="nonzero" stroke-linejoin="miter" stroke-miterlimit="10" stroke-dasharray="" stroke-dashoffset="0" style="mix-blend-mode: normal"><g><g stroke-linecap="round"><g stroke="#000000" stroke-width="0"><g><path d="M204.31174,272.22337l25.59372,-170.89995l3.30241,177.50478z" fill="#00b2bb"/><path d="M234.03347,278.82821l-3.30241,-173.37676l31.37294,170.89996z" fill="#00bdc6"/><path d="M260.45279,275.5258l-28.89613,-169.24874l45.4082,156.03909z" fill="#00dae6"/></g><g><path d="M208.99956,219.06405l20.35593,-135.92507l2.62656,141.17821z" fill="#00b2bb"/><path d="M232.6387,224.31718l-2.62656,-137.895l24.95242,135.92508z" fill="#00bdc6"/><path d="M253.65128,221.69062l-22.98251,-134.61179l36.11536,124.10551z" fill="#00dae6"/></g><g><path d="M214.36009,169.34337l14.82716,-99.00715l1.91317,102.83352z" fill="#00b2bb"/><path d="M231.57872,173.16974l-1.91318,-100.44204l18.17522,99.00716z" fill="#00bdc6"/><path d="M246.88418,171.25655l-16.74035,-98.05056l26.30626,90.39783z" fill="#00dae6"/></g></g><path d="M237.39267,288.70104l0.4,-10.4" fill="none" stroke="#580000" stroke-width="1.5"/></g><path d="M221.62405,164.57575c0,-0.69036 0.55964,-1.25 1.25,-1.25c0.69036,0 1.25,0.55964 1.25,1.25c0,0.69036 -0.55964,1.25 -1.25,1.25c-0.69036,0 -1.25,-0.55964 -1.25,-1.25z" fill="#000000" stroke="none" stroke-width="0.5" stroke-linecap="butt"/><path d="M242.07859,164.57575c0,-0.69036 0.55964,-1.25 1.25,-1.25c0.69036,0 1.25,0.55964 1.25,1.25c0,0.69036 -0.55964,1.25 -1.25,1.25c-0.69036,0 -1.25,-0.55964 -1.25,-1.25z" fill="#000000" stroke="none" stroke-width="0.5" stroke-linecap="butt"/><g fill="#000000" stroke-linecap="butt"><path d="M228.64235,173.43144c0,0.64419 -0.55486,1.16642 -1.23932,1.16642c-0.68446,0 -1.23932,-0.52222 -1.23932,-1.16642c0,-0.64419 0.55486,-1.16642 1.23932,-1.16642c0.68446,0 1.23932,0.52222 1.23932,1.16642z" stroke="#000000" stroke-width="1.5"/><path d="M216.97091,176.34748c0,-1.02791 1.0279,-1.02791 1.0279,-1.02791l0.39511,0.03069c2.83657,0.73074 5.66638,0.63061 7.35194,-1.9058c0,0 0.57018,-0.85527 1.42544,-0.28509c0.85527,0.57018 0.28509,1.42544 0.28509,1.42544c-2.22022,3.32081 -5.86316,3.66159 -9.56108,2.75987l0.1035,0.03069c0,0 -1.0279,0 -1.0279,-1.0279z" stroke="none" stroke-width="0.5"/></g><g data-paper-data="{&quot;index&quot;:null}" fill="#000000" stroke-linecap="butt"><path d="M240.65704,172.37141c0.68446,0 1.23932,0.52222 1.23932,1.16642c0,0.64419 -0.55486,1.16642 -1.23932,1.16642c-0.68446,0 -1.23932,-0.52222 -1.23932,-1.16642c0,-0.64419 0.55486,-1.16642 1.23932,-1.16642z" stroke="#000000" stroke-width="1.5"/><path d="M250.06126,177.48177l0.1035,-0.03069c-3.69792,0.90172 -7.34086,0.56094 -9.56108,-2.75986c0,0 -0.57018,-0.85527 0.28509,-1.42545c0.85527,-0.57018 1.42544,0.28509 1.42544,0.28509c1.68556,2.53641 4.51537,2.63653 7.35194,1.90579l0.39511,-0.03069c0,0 1.0279,0 1.0279,1.02791c0,1.02791 -1.0279,1.0279 -1.0279,1.0279z" stroke="none" stroke-width="0.5"/></g><g stroke="#000000" stroke-width="5"><path d="M237.93298,102.59907l13.95236,26.68039" fill="none" stroke-linecap="round"/><path d="M241.54165,105.94418l19.09164,-10.14761l10.04152,18.46152l-19.27007,10.24245z" fill="#000000" stroke-linecap="butt"/></g><path d="M228.29346,183.40789l5.10615,-5.04272l5.04272,5.10615l-5.10615,5.04272z" fill="#ffffff" stroke="#000000" stroke-width="0" stroke-linecap="butt"/><path d="M229.54436,202.91019l0.94118,-18h4.58824l1.76471,18.23529z" fill="#1d1d1d" stroke="none" stroke-width="0" stroke-linecap="butt"/><path d="M235.01086,182.61132c0,-0.13807 0.11193,-0.25 0.25,-0.25c0.13807,0 0.25,0.11193 0.25,0.25c0,0.13807 -0.11193,0.25 -0.25,0.25c-0.13807,0 -0.25,-0.11193 -0.25,-0.25z" fill="#5246ff" stroke="none" stroke-width="0.5" stroke-linecap="butt"/><path d="M231.34251,183.01333c0,-0.13807 0.11193,-0.25 0.25,-0.25c0.01896,0 0.03742,0.00211 0.05517,0.00611c0.02034,-0.11764 0.12289,-0.20711 0.24634,-0.20711c0.13807,0 0.25,0.11193 0.25,0.25c0,0.13807 -0.11193,0.25 -0.25,0.25c-0.01896,0 -0.03742,-0.00211 -0.05517,-0.00611c-0.02034,0.11764 -0.12289,0.20711 -0.24634,0.20711c-0.13807,0 -0.25,-0.11193 -0.25,-0.25z" fill="#5246ff" stroke="none" stroke-width="0.5" stroke-linecap="butt"/><path d="M235.0096,183.86886c0.13807,0 0.25,0.11193 0.25,0.25c0,0.12272 -0.08843,0.22479 -0.20504,0.24597c-0.00696,0.03833 -0.02266,0.07361 -0.04496,0.10371c-0.04555,0.06147 -0.11862,0.10132 -0.20101,0.10132c-0.13807,0 -0.25,-0.11193 -0.25,-0.25c0,-0.12272 0.08843,-0.22479 0.20504,-0.24597c0.02118,-0.11661 0.12325,-0.20504 0.24597,-0.20504z" fill="#5246ff" stroke="none" stroke-width="0.5" stroke-linecap="butt"/><path d="M232.64905,183.7671c0,-0.13807 0.11193,-0.25 0.25,-0.25c0.13807,0 0.25,0.11193 0.25,0.25c0,0.13807 -0.11193,0.25 -0.25,0.25c-0.13807,0 -0.25,-0.11193 -0.25,-0.25z" fill="#5246ff" stroke="none" stroke-width="0.5" stroke-linecap="butt"/><path d="M235.41287,184.01835c0,-0.04045 0.00961,-0.07865 0.02666,-0.11246c-0.10267,-0.0311 -0.17742,-0.12647 -0.17742,-0.2393c0,-0.13807 0.11193,-0.25 0.25,-0.25c0.13807,0 0.25,0.11193 0.25,0.25c0,0.04045 -0.00961,0.07865 -0.02666,0.11246c0.10267,0.0311 0.17742,0.12647 0.17742,0.2393c0,0.13807 -0.11193,0.25 -0.25,0.25c-0.13807,0 -0.25,-0.11193 -0.25,-0.25z" fill="#5246ff" stroke="none" stroke-width="0.5" stroke-linecap="butt"/><path d="M233.80357,181.80855c0.05885,0 0.11295,0.02033 0.15565,0.05435c0.01471,-0.0027 0.02987,-0.0041 0.04535,-0.0041c0.13807,0 0.25,0.11193 0.25,0.25c0,0.12902 -0.09774,0.23522 -0.22322,0.24858c0.01427,0.03145 0.02222,0.06639 0.02222,0.10318c0,0.08238 -0.03985,0.15546 -0.10132,0.20101c0.04898,0.03629 0.08423,0.09006 0.09654,0.15208c0.00201,-0.00005 0.00402,-0.00007 0.00604,-0.00007c0.13807,0 0.25,0.11193 0.25,0.25c0,0.00013 0,0.00026 0,0.0004c0.03155,0.04184 0.05025,0.09392 0.05025,0.15036c0,0.13807 -0.11193,0.25 -0.25,0.25c-0.13807,0 -0.25,-0.11193 -0.25,-0.25c0,-0.00013 0,-0.00026 0,-0.0004c-0.00535,-0.00709 -0.01033,-0.01448 -0.01491,-0.02214c-0.03276,0.09989 -0.12676,0.17203 -0.2376,0.17203c-0.13807,0 -0.25,-0.11193 -0.25,-0.25c0,-0.10315 0.06248,-0.19172 0.15165,-0.22991c-0.00059,-0.00704 -0.0009,-0.01415 -0.0009,-0.02134c0,-0.0642 0.0242,-0.12275 0.06398,-0.16702c-0.09595,-0.03493 -0.16448,-0.12696 -0.16448,-0.23499c0,-0.04045 0.00961,-0.07865 0.02666,-0.11246c-0.10267,-0.0311 -0.17742,-0.12647 -0.17742,-0.2393c0,-0.13807 0.11193,-0.25 0.25,-0.25c0.04278,0 0.08305,0.01075 0.11826,0.02969c0.04565,-0.04917 0.11086,-0.07994 0.18325,-0.07994z" fill="#5246ff" stroke="none" stroke-width="0.5" stroke-linecap="butt"/><path d="M230.38774,184.0686c0,-0.13807 0.11193,-0.25 0.25,-0.25c0.13807,0 0.25,0.11193 0.25,0.25c0,0.13807 -0.11193,0.25 -0.25,0.25c-0.13807,0 -0.25,-0.11193 -0.25,-0.25z" fill="#5246ff" stroke="none" stroke-width="0.5" stroke-linecap="butt"/><path d="M234.05483,183.66785c0.13807,0 0.25,0.11193 0.25,0.25c0,0.13807 -0.11193,0.25 -0.25,0.25c-0.05662,0 -0.10884,-0.01882 -0.15075,-0.05055c-0.04191,0.03173 -0.09413,0.05055 -0.15075,0.05055c-0.13807,0 -0.25,-0.11193 -0.25,-0.25c0,-0.13807 0.11193,-0.25 0.25,-0.25c0.05662,0 0.10884,0.01882 0.15075,0.05055c0.04191,-0.03173 0.09413,-0.05055 0.15075,-0.05055z" fill="#5246ff" stroke="none" stroke-width="0.5" stroke-linecap="butt"/><path d="M232.34754,184.21936c0,-0.13807 0.11193,-0.25 0.25,-0.25c0.13807,0 0.25,0.11193 0.25,0.25c0,0.13807 -0.11193,0.25 -0.25,0.25c-0.13807,0 -0.25,-0.11193 -0.25,-0.25z" fill="#5246ff" stroke="none" stroke-width="0.5" stroke-linecap="butt"/><path d="M231.94553,183.21433c0,-0.13807 0.11193,-0.25 0.25,-0.25c0.13807,0 0.25,0.11193 0.25,0.25c0,0.13807 -0.11193,0.25 -0.25,0.25c-0.13807,0 -0.25,-0.11193 -0.25,-0.25z" fill="#5246ff" stroke="none" stroke-width="0.5" stroke-linecap="butt"/><path d="M230.7395,182.51082c0,-0.13807 0.11193,-0.25 0.25,-0.25c0.05885,0 0.11295,0.02033 0.15565,0.05435c0.01471,-0.0027 0.02987,-0.0041 0.04535,-0.0041c0.13807,0 0.25,0.11193 0.25,0.25c0,0.13799 -0.11179,0.24986 -0.24974,0.25c0.01069,0.19909 -0.19728,0.2453 -0.19728,0.2453c-0.15075,0.0335 -0.30151,0.067 -0.45226,0.1005l-0.20499,0.00595c0,0 -0.25,0 -0.25,-0.25c0,-0.25 0.25,-0.25 0.25,-0.25l0.09652,0.00595c0.10736,-0.02386 0.21472,-0.04771 0.32207,-0.07157c-0.00992,-0.02692 -0.01533,-0.05603 -0.01533,-0.08639z" fill="#5246ff" stroke="none" stroke-width="0.5" stroke-linecap="butt"/><path d="M229.93548,183.51584c0,-0.13807 0.11193,-0.25 0.25,-0.25c0.13807,0 0.25,0.11193 0.25,0.25c0,0.13807 -0.11193,0.25 -0.25,0.25c-0.13807,0 -0.25,-0.11193 -0.25,-0.25z" fill="#5246ff" stroke="none" stroke-width="0.5" stroke-linecap="butt"/><path d="M235.81488,184.42036c0,-0.13807 0.11193,-0.25 0.25,-0.25c0.13807,0 0.25,0.11193 0.25,0.25c0,0.13807 -0.11193,0.25 -0.25,0.25c-0.13807,0 -0.25,-0.11193 -0.25,-0.25z" fill="#5246ff" stroke="none" stroke-width="0.5" stroke-linecap="butt"/><path d="M236.01588,183.11383c0,-0.13807 0.11193,-0.25 0.25,-0.25c0.13807,0 0.25,0.11193 0.25,0.25c0,0.00202 -0.00002,0.00403 -0.00007,0.00604c0.11465,0.02275 0.20108,0.12389 0.20108,0.24522c0,0.13807 -0.11193,0.25 -0.25,0.25c-0.13807,0 -0.25,-0.11193 -0.25,-0.25c0,-0.00202 0.00002,-0.00403 0.00007,-0.00604c-0.11465,-0.02275 -0.20108,-0.12389 -0.20108,-0.24522z" fill="#5246ff" stroke="none" stroke-width="0.5" stroke-linecap="butt"/><path d="M233.25081,180.35127c0.13807,0 0.25,0.11193 0.25,0.25c0,0.09714 -0.0554,0.18134 -0.13633,0.22272c0.02274,0.03767 0.03583,0.08182 0.03583,0.12903c0,0.13807 -0.11193,0.25 -0.25,0.25c-0.13807,0 -0.25,-0.11193 -0.25,-0.25c0,-0.07215 0.03057,-0.13717 0.07946,-0.1828c-0.07731,-0.04252 -0.12971,-0.12474 -0.12971,-0.21921c0,-0.13807 0.11193,-0.25 0.25,-0.25c0.05644,0 0.10851,0.0187 0.15036,0.05025c0.00013,0 0.00026,0 0.0004,0z" fill="#5246ff" stroke="none" stroke-width="0.5" stroke-linecap="butt"/><path d="M230.38774,181.30479c0,-0.13807 0.11193,-0.25 0.25,-0.25c0.13807,0 0.25,0.11193 0.25,0.25c0,0.13807 -0.11193,0.25 -0.25,0.25c-0.13807,0 -0.25,-0.11193 -0.25,-0.25z" fill="#5246ff" stroke="none" stroke-width="0.5" stroke-linecap="butt"/><path d="M234.05608,181.40529c0,-0.13807 0.11193,-0.25 0.25,-0.25c0.13807,0 0.25,0.11193 0.25,0.25c0,0.13807 -0.11193,0.25 -0.25,0.25c-0.13807,0 -0.25,-0.11193 -0.25,-0.25z" fill="#5246ff" stroke="none" stroke-width="0.5" stroke-linecap="butt"/><path d="M232.5988,181.85755c0,-0.13807 0.11193,-0.25 0.25,-0.25c0.13807,0 0.25,0.11193 0.25,0.25c0,0.00719 -0.0003,0.01431 -0.0009,0.02134c0.08918,0.0382 0.15165,0.12676 0.15165,0.22991c0,0.1064 -0.06647,0.19728 -0.16015,0.23337c0.00612,0.02166 0.0094,0.04452 0.0094,0.06814c0,0.00042 0,0.00084 0,0.00126c0.00042,0 0.00084,0 0.00126,0c0.13807,0 0.25,0.11193 0.25,0.25c0,0.13807 -0.11193,0.25 -0.25,0.25c-0.13807,0 -0.25,-0.11193 -0.25,-0.25c0,-0.00042 0,-0.00084 0,-0.00126c-0.00042,0 -0.00084,0 -0.00126,0c-0.13807,0 -0.25,-0.11193 -0.25,-0.25c0,-0.1064 0.06647,-0.19728 0.16015,-0.23337c-0.00612,-0.02166 -0.0094,-0.04452 -0.0094,-0.06814c0,-0.00719 0.0003,-0.01431 0.0009,-0.02134c-0.08918,-0.0382 -0.15165,-0.12676 -0.15165,-0.22991z" fill="#5246ff" stroke="none" stroke-width="0.5" stroke-linecap="butt"/><path d="M234.25709,182.81232c0,-0.13807 0.11193,-0.25 0.25,-0.25c0.13807,0 0.25,0.11193 0.25,0.25c0,0.13807 -0.11193,0.25 -0.25,0.25c-0.13807,0 -0.25,-0.11193 -0.25,-0.25z" fill="#5246ff" stroke="none" stroke-width="0.5" stroke-linecap="butt"/></g></g></g></svg>