<svg version="1.1" xmlns="http://www.w3.org/2000/svg" xmlns:xlink="http://www.w3.org/1999/xlink" width="72.65312" height="219.11482" viewBox="0,0,72.65312,219.11482"><g transform="translate(-203.67344,-70.4426)"><g data-paper-data="{&quot;isPaintingLayer&quot;:true}" fill-rule="nonzero" stroke-linejoin="miter" stroke-miterlimit="10" stroke-dasharray="" stroke-dashoffset="0" style="mix-blend-mode: normal"><g stroke-linecap="round"><g stroke="#000000" stroke-width="0"><g><path d="M203.67344,272.32976l25.59372,-170.89995l3.30241,177.50478z" fill="#fb6464"/><path d="M233.39517,278.93459l-3.30241,-173.37676l31.37294,170.89996z" fill="#ff6666"/><path d="M259.81449,275.63218l-28.89613,-169.24874l45.4082,156.03909z" fill="#ff7979"/></g><g><path d="M208.36126,219.17043l20.35593,-135.92507l2.62656,141.17821z" fill="#fb6464"/><path d="M232.0004,224.42356l-2.62656,-137.895l24.95242,135.92508z" fill="#ff6666"/><path d="M253.01298,221.797l-22.98251,-134.61179l36.11536,124.10551z" fill="#ff7979"/></g><g><path d="M213.72179,169.44975l14.82716,-99.00715l1.91317,102.83352z" fill="#fb6464"/><path d="M230.94042,173.27612l-1.91318,-100.44204l18.17522,99.00716z" fill="#ff6666"/><path d="M246.24588,171.36293l-16.74035,-98.05056l26.30626,90.39783z" fill="#ff7979"/></g></g><path d="M236.75437,288.80742l0.4,-10.4" fill="none" stroke="#580000" stroke-width="1.5"/></g><path d="M218.35467,163.54312l9.85959,5.81878l-10.99103,3.55592" fill="none" stroke="#ffffff" stroke-width="1.5" stroke-linecap="round"/><path d="M247.44856,163.21986l-8.24327,5.81878l9.69797,6.30367" fill="none" stroke="#ffffff" stroke-width="1.5" stroke-linecap="round"/><path d="M243.40774,181.48435c0,3.48143 -4.30574,6.30368 -9.61715,6.30368c-5.31141,0 -9.61715,-2.82226 -9.61715,-6.30368c0,-3.48143 4.14411,-2.58612 9.45551,-2.58612c5.31141,0 9.77878,-0.8953 9.77878,2.58612z" fill="none" stroke="#ffffff" stroke-width="1.5" stroke-linecap="butt"/></g></g></svg>