<svg version="1.1" xmlns="http://www.w3.org/2000/svg" xmlns:xlink="http://www.w3.org/1999/xlink" width="72.65312" height="219.11482" viewBox="0,0,72.65312,219.11482"><g transform="translate(-203.67344,-70.4426)"><g data-paper-data="{&quot;isPaintingLayer&quot;:true}" fill-rule="nonzero" stroke-linejoin="miter" stroke-miterlimit="10" stroke-dasharray="" stroke-dashoffset="0" style="mix-blend-mode: normal"><g><g stroke-linecap="round"><g stroke="#000000" stroke-width="0"><g><path d="M203.67344,272.32976l25.59372,-170.89995l3.30241,177.50478z" fill="#e2e2e2"/><path d="M233.39517,278.93459l-3.30241,-173.37676l31.37294,170.89996z" fill="#e8e8e8"/><path d="M259.81449,275.63218l-28.89613,-169.24874l45.4082,156.03909z" fill="#f4f4f4"/></g><g><path d="M208.36126,219.17043l20.35593,-135.92507l2.62656,141.17821z" fill="#e2e2e2"/><path d="M232.0004,224.42356l-2.62656,-137.895l24.95242,135.92508z" fill="#e8e8e8"/><path d="M253.01298,221.797l-22.98251,-134.61179l36.11536,124.10551z" fill="#f4f4f4"/></g><g><path d="M213.72179,169.44975l14.82716,-99.00715l1.91317,102.83352z" fill="#e2e2e2"/><path d="M230.94042,173.27612l-1.91318,-100.44204l18.17522,99.00716z" fill="#e8e8e8"/><path d="M246.24588,171.36293l-16.74035,-98.05056l26.30626,90.39783z" fill="#f4f4f4"/></g></g><path d="M236.75437,288.80742l0.4,-10.4" fill="none" stroke="#580000" stroke-width="1.5"/></g><path d="M239.39345,180.93174l-0.78768,-2.25052l-3.9384,1.80041l-1.01273,-2.58809l-4.50102,2.47556l-1.68788,-5.62628l0.4501,-3.9384l1.80041,2.02546l3.71335,1.80041l0.4501,-0.67516l5.06365,-0.78767l0.33758,1.68788h4.3885l-2.25051,2.81314l-1.80041,3.9384" fill="#000000" stroke="#000000" stroke-width="1" stroke-linecap="round"/><path d="M218.37279,163.92889c-2.82021,-3.72568 -2.08617,-9.03218 1.63951,-11.8524c2.98547,-2.25989 4.21955,1.70738 6.76946,5.12147c2.5128,3.3644 6.38544,6.14345 3.44343,8.37044c-3.72568,2.82021 -9.03219,2.08618 -11.8524,-1.63951z" fill="#000000" stroke="#000000" stroke-width="1" stroke-linecap="butt"/><path d="M237.92709,165.49843c-2.56683,-1.943 0.81195,-4.36766 3.00431,-7.30301c2.22475,-2.97871 3.30144,-6.44006 5.90619,-4.46836c3.25057,2.46057 3.891,7.09037 1.43043,10.34094c-2.46057,3.25057 -7.09036,3.891 -10.34094,1.43043z" data-paper-data="{&quot;index&quot;:null}" fill="#000000" stroke="#000000" stroke-width="1" stroke-linecap="butt"/></g></g></g></svg>