<svg version="1.1" xmlns="http://www.w3.org/2000/svg" xmlns:xlink="http://www.w3.org/1999/xlink" width="51.5646" height="132.34614" viewBox="0,0,51.5646,132.34614"><g transform="translate(-202.91724,-119.54461)"><g data-paper-data="{&quot;isPaintingLayer&quot;:true}" fill-rule="nonzero" stroke-linecap="round" stroke-linejoin="miter" stroke-miterlimit="10" stroke-dasharray="" stroke-dashoffset="0" style="mix-blend-mode: normal"><g><g stroke="#000000" stroke-width="0"><g><path d="M202.91725,241.2106l18.16481,-102.99173l2.34384,106.97208z" fill="#5ce66b"/><path d="M224.0118,245.19096l-2.34384,-104.48436l22.26653,102.99173z" fill="#75f784"/><path d="M242.76263,243.20079l-20.50865,-101.99663l32.22787,94.03592z" fill="#78ff88"/></g><g><path d="M206.24435,209.17448l14.44735,-81.91434l1.86417,85.08011z" fill="#5ce66b"/><path d="M223.02193,212.34024l-1.86417,-83.10152l17.70965,81.91436z" fill="#75f784"/><path d="M237.93534,210.75737l-16.31153,-81.1229l25.6324,74.79137z" fill="#78ff88"/></g><g><path d="M210.04891,179.21062l10.52338,-59.666l1.35784,61.97194z" fill="#5ce66b"/><path d="M222.26959,181.51657l-1.35786,-60.53073l12.89963,59.66601z" fill="#75f784"/><path d="M233.13247,180.36358l-11.88124,-59.08952l18.67052,54.47765z" fill="#78ff88"/></g></g><path d="M226.39598,251.14076l0.2839,-6.2675" fill="none" stroke="#790000" stroke-width="1.5"/></g></g></g></svg>