<svg version="1.1" xmlns="http://www.w3.org/2000/svg" xmlns:xlink="http://www.w3.org/1999/xlink" width="67.07393" height="202.34614" viewBox="0,0,67.07393,202.34614"><g transform="translate(-156.91724,-49.54461)"><g data-paper-data="{&quot;isPaintingLayer&quot;:true}" fill-rule="nonzero" stroke-linecap="round" stroke-linejoin="miter" stroke-miterlimit="10" stroke-dasharray="" stroke-dashoffset="0" style="mix-blend-mode: normal"><g stroke="#000000" stroke-width="0"><g><path d="M156.91724,235.92845l23.62832,-157.77617l3.04881,163.87379z" fill="#5ce66b"/><path d="M184.35651,242.02607l-3.04881,-160.06278l28.96374,157.77618z" fill="#75f784"/><path d="M208.7471,238.97727l-26.67713,-156.25175l41.9212,144.0565z" fill="#78ff88"/></g><g><path d="M161.24505,186.85133l18.79276,-125.48708l2.42486,130.33682z" fill="#5ce66b"/><path d="M183.0689,191.70106l-2.42486,-127.30574l23.03626,125.4871z" fill="#75f784"/><path d="M202.46789,189.2762l-21.21763,-124.27465l33.34198,114.57518z" fill="#78ff88"/></g><g><path d="M166.19392,140.94878l13.68855,-91.40417l1.76624,94.9367z" fill="#5ce66b"/><path d="M182.09027,144.48133l-1.76627,-92.72888l16.77951,91.40419z" fill="#75f784"/><path d="M196.22044,142.71503l-15.45482,-90.52104l24.28614,83.45597z" fill="#78ff88"/></g></g><path d="M187.45779,251.14075l0.36928,-9.60136" fill="none" stroke="#790000" stroke-width="1.5"/></g></g></svg>